<svg xmlns="http://www.w3.org/2000/svg" xmlns:xlink="http://www.w3.org/1999/xlink" width="500" zoomAndPan="magnify" viewBox="0 0 375 374.999991" height="500" preserveAspectRatio="xMidYMid meet" version="1.0"><defs><g/><clipPath id="50fccbd875"><rect x="0" width="218" y="0" height="300"/></clipPath></defs><rect x="-37.5" width="450" fill="#ffffff" y="-37.499999" height="449.999989" fill-opacity="1"/><rect x="-37.5" width="450" fill="#f9b4ed" y="-37.499999" height="449.999989" fill-opacity="1"/><g transform="matrix(1, 0, 0, 1, 74, 52)"><g clip-path="url(#50fccbd875)"><g fill="#000000" fill-opacity="1"><g transform="translate(1.284378, 174.51175)"><g><path d="M 70.578125 -161.640625 C 60.546875 -158.816406 52.3125 -153.953125 45.875 -147.046875 C 39.445312 -140.148438 34.625 -132.070312 31.40625 -122.8125 C 28.195312 -113.5625 26.472656 -103.914062 26.234375 -93.875 C 25.992188 -83.832031 26.972656 -74.34375 29.171875 -65.40625 C 31.679688 -56.46875 35.5625 -47.722656 40.8125 -39.171875 C 46.070312 -30.617188 52.382812 -23.128906 59.75 -16.703125 C 67.125 -10.273438 75.320312 -5.726562 84.34375 -3.0625 C 93.363281 -0.394531 102.894531 -0.394531 112.9375 -3.0625 C 121.71875 -5.414062 129.046875 -9.375 134.921875 -14.9375 C 140.804688 -20.507812 145.472656 -27.097656 148.921875 -34.703125 C 152.378906 -42.304688 154.65625 -50.34375 155.75 -58.8125 L 155.75 -28.9375 C 145.082031 -15.445312 130.96875 -6.425781 113.40625 -1.875 C 102.113281 1.414062 91.054688 2.316406 80.234375 0.828125 C 69.410156 -0.660156 59.367188 -4.148438 50.109375 -9.640625 C 40.859375 -15.128906 32.820312 -22.226562 26 -30.9375 C 19.175781 -39.644531 14.195312 -49.566406 11.0625 -60.703125 C 8.238281 -71.835938 7.609375 -82.851562 9.171875 -93.75 C 10.742188 -104.65625 14.234375 -114.851562 19.640625 -124.34375 C 25.054688 -133.832031 32.035156 -141.945312 40.578125 -148.6875 C 49.128906 -155.4375 58.972656 -160.300781 70.109375 -163.28125 C 80.617188 -166.101562 89.988281 -167.316406 98.21875 -166.921875 C 106.457031 -166.535156 113.632812 -165.164062 119.75 -162.8125 C 125.875 -160.457031 130.972656 -157.828125 135.046875 -154.921875 C 139.128906 -152.023438 142.148438 -149.476562 144.109375 -147.28125 C 146.066406 -145.082031 147.046875 -143.984375 147.046875 -143.984375 L 147.046875 -119.515625 C 147.046875 -119.515625 146.335938 -120.847656 144.921875 -123.515625 C 143.515625 -126.179688 141.398438 -129.515625 138.578125 -133.515625 C 135.753906 -137.515625 132.222656 -141.632812 127.984375 -145.875 C 123.753906 -150.113281 118.816406 -153.878906 113.171875 -157.171875 C 107.523438 -160.460938 101.171875 -162.617188 94.109375 -163.640625 C 87.054688 -164.660156 79.210938 -163.992188 70.578125 -161.640625 Z M 70.578125 -161.640625 "/></g></g></g><g fill="#000000" fill-opacity="1"><g transform="translate(80.578298, 239.557503)"><g><path d="M 77.875 -91.53125 C 87.757812 -90.894531 96.503906 -89.125 104.109375 -86.21875 C 111.710938 -83.320312 117.671875 -78.695312 121.984375 -72.34375 C 126.304688 -65.988281 128.46875 -57.242188 128.46875 -46.109375 C 128.46875 -33.566406 125.601562 -23.960938 119.875 -17.296875 C 114.144531 -10.628906 106.414062 -6.117188 96.6875 -3.765625 C 86.96875 -1.410156 76.070312 -0.15625 64 0 L 8.234375 0 L 8.234375 -166.109375 L 48.9375 -166.109375 C 60.695312 -166.109375 71.398438 -164.851562 81.046875 -162.34375 C 90.703125 -159.832031 98.351562 -155.832031 104 -150.34375 C 109.644531 -144.851562 112.46875 -137.5625 112.46875 -128.46875 C 112.46875 -117.957031 109.09375 -109.679688 102.34375 -103.640625 C 95.601562 -97.597656 87.445312 -93.5625 77.875 -91.53125 Z M 110.109375 -46.109375 C 110.109375 -56.617188 108.695312 -64.851562 105.875 -70.8125 C 103.050781 -76.78125 99.328125 -81.175781 94.703125 -84 C 90.078125 -86.820312 85.097656 -88.582031 79.765625 -89.28125 C 74.429688 -89.988281 69.175781 -90.34375 64 -90.34375 C 58.507812 -90.34375 53.289062 -91.875 48.34375 -94.9375 C 43.40625 -98 39.210938 -102.195312 35.765625 -107.53125 C 33.722656 -110.664062 31.957031 -114.234375 30.46875 -118.234375 C 28.976562 -122.234375 27.765625 -126.503906 26.828125 -131.046875 L 26.828125 -1.875 L 62.109375 -1.875 C 67.441406 -1.875 72.890625 -2.226562 78.453125 -2.9375 C 84.023438 -3.644531 89.203125 -5.367188 93.984375 -8.109375 C 98.773438 -10.859375 102.660156 -15.25 105.640625 -21.28125 C 108.617188 -27.320312 110.109375 -35.597656 110.109375 -46.109375 Z M 94.109375 -128.46875 C 94.109375 -137.40625 91.910156 -144.5 87.515625 -149.75 C 83.128906 -155.007812 77.484375 -158.773438 70.578125 -161.046875 C 63.679688 -163.328125 56.46875 -164.46875 48.9375 -164.46875 L 26.828125 -164.46875 L 26.828125 -148.9375 C 26.828125 -140.78125 27.765625 -133.289062 29.640625 -126.46875 C 31.523438 -119.644531 34.191406 -113.722656 37.640625 -108.703125 C 44.546875 -97.722656 53.332031 -92.234375 64 -92.234375 C 69.332031 -92.234375 74.269531 -93.488281 78.8125 -96 C 83.363281 -98.507812 87.050781 -102.429688 89.875 -107.765625 C 92.695312 -113.097656 94.109375 -120 94.109375 -128.46875 Z M 94.109375 -128.46875 "/></g></g></g></g></g></svg>