<svg xmlns="http://www.w3.org/2000/svg" xmlns:xlink="http://www.w3.org/1999/xlink" width="500" zoomAndPan="magnify" viewBox="0 0 375 374.999991" height="500" preserveAspectRatio="xMidYMid meet" version="1.0"><defs><g/></defs><rect x="-37.5" width="450" fill="#ffffff" y="-37.499999" height="449.999989" fill-opacity="1"/><rect x="-37.5" width="450" fill="#f9b4ed" y="-37.499999" height="449.999989" fill-opacity="1"/><g fill="#000000" fill-opacity="1"><g transform="translate(108.671745, 272.377072)"><g><path d="M 7.203125 -7.859375 L 7.203125 -2.765625 C 7.203125 -2.222656 7.082031 -1.734375 6.84375 -1.296875 C 6.613281 -0.867188 6.265625 -0.523438 5.796875 -0.265625 C 5.335938 -0.015625 4.753906 0.109375 4.046875 0.109375 C 3.046875 0.109375 2.28125 -0.15625 1.75 -0.6875 C 1.226562 -1.21875 0.96875 -1.921875 0.96875 -2.796875 L 0.96875 -7.859375 L 2.25 -7.859375 L 2.25 -2.90625 C 2.25 -2.25 2.40625 -1.765625 2.71875 -1.453125 C 3.03125 -1.140625 3.488281 -0.984375 4.09375 -0.984375 C 4.519531 -0.984375 4.863281 -1.054688 5.125 -1.203125 C 5.394531 -1.359375 5.59375 -1.578125 5.71875 -1.859375 C 5.84375 -2.148438 5.90625 -2.5 5.90625 -2.90625 L 5.90625 -7.859375 Z M 7.203125 -7.859375 "/></g></g></g><g fill="#000000" fill-opacity="1"><g transform="translate(119.035376, 272.377072)"><g><path d="M 7.578125 0 L 6 0 L 2.15625 -6.265625 L 2.109375 -6.265625 C 2.117188 -6.054688 2.128906 -5.832031 2.140625 -5.59375 C 2.160156 -5.363281 2.171875 -5.117188 2.171875 -4.859375 C 2.179688 -4.609375 2.191406 -4.359375 2.203125 -4.109375 L 2.203125 0 L 1.03125 0 L 1.03125 -7.859375 L 2.609375 -7.859375 L 6.453125 -1.625 L 6.484375 -1.625 C 6.472656 -1.8125 6.460938 -2.019531 6.453125 -2.25 C 6.441406 -2.488281 6.429688 -2.734375 6.421875 -2.984375 C 6.410156 -3.242188 6.40625 -3.488281 6.40625 -3.71875 L 6.40625 -7.859375 L 7.578125 -7.859375 Z M 7.578125 0 "/></g></g></g><g fill="#000000" fill-opacity="1"><g transform="translate(129.844492, 272.377072)"><g><path d="M 1.03125 0 L 1.03125 -7.859375 L 2.328125 -7.859375 L 2.328125 -1.09375 L 5.65625 -1.09375 L 5.65625 0 Z M 1.03125 0 "/></g></g></g><g fill="#000000" fill-opacity="1"><g transform="translate(138.018274, 272.377072)"><g><path d="M 8 -3.9375 C 8 -3.332031 7.921875 -2.78125 7.765625 -2.28125 C 7.617188 -1.789062 7.394531 -1.363281 7.09375 -1 C 6.789062 -0.644531 6.410156 -0.367188 5.953125 -0.171875 C 5.492188 0.015625 4.953125 0.109375 4.328125 0.109375 C 3.703125 0.109375 3.160156 0.015625 2.703125 -0.171875 C 2.242188 -0.367188 1.863281 -0.644531 1.5625 -1 C 1.257812 -1.363281 1.03125 -1.796875 0.875 -2.296875 C 0.726562 -2.796875 0.65625 -3.347656 0.65625 -3.953125 C 0.65625 -4.753906 0.785156 -5.457031 1.046875 -6.0625 C 1.316406 -6.664062 1.722656 -7.132812 2.265625 -7.46875 C 2.816406 -7.800781 3.507812 -7.96875 4.34375 -7.96875 C 5.15625 -7.96875 5.832031 -7.800781 6.375 -7.46875 C 6.914062 -7.144531 7.320312 -6.679688 7.59375 -6.078125 C 7.863281 -5.472656 8 -4.757812 8 -3.9375 Z M 2.015625 -3.9375 C 2.015625 -3.332031 2.09375 -2.804688 2.25 -2.359375 C 2.414062 -1.921875 2.671875 -1.582031 3.015625 -1.34375 C 3.359375 -1.101562 3.796875 -0.984375 4.328125 -0.984375 C 4.867188 -0.984375 5.3125 -1.101562 5.65625 -1.34375 C 6 -1.582031 6.25 -1.921875 6.40625 -2.359375 C 6.570312 -2.804688 6.65625 -3.332031 6.65625 -3.9375 C 6.65625 -4.851562 6.46875 -5.570312 6.09375 -6.09375 C 5.726562 -6.613281 5.144531 -6.875 4.34375 -6.875 C 3.8125 -6.875 3.367188 -6.753906 3.015625 -6.515625 C 2.671875 -6.285156 2.414062 -5.953125 2.25 -5.515625 C 2.09375 -5.078125 2.015625 -4.550781 2.015625 -3.9375 Z M 2.015625 -3.9375 "/></g></g></g><g fill="#000000" fill-opacity="1"><g transform="translate(148.870328, 272.377072)"><g><path d="M 4.375 -6.875 C 4 -6.875 3.660156 -6.804688 3.359375 -6.671875 C 3.066406 -6.535156 2.816406 -6.335938 2.609375 -6.078125 C 2.410156 -5.816406 2.257812 -5.503906 2.15625 -5.140625 C 2.050781 -4.785156 2 -4.378906 2 -3.921875 C 2 -3.316406 2.082031 -2.789062 2.25 -2.34375 C 2.425781 -1.90625 2.6875 -1.566406 3.03125 -1.328125 C 3.382812 -1.097656 3.828125 -0.984375 4.359375 -0.984375 C 4.691406 -0.984375 5.015625 -1.015625 5.328125 -1.078125 C 5.648438 -1.148438 5.976562 -1.238281 6.3125 -1.34375 L 6.3125 -0.25 C 6 -0.125 5.675781 -0.0351562 5.34375 0.015625 C 5.019531 0.078125 4.644531 0.109375 4.21875 0.109375 C 3.414062 0.109375 2.75 -0.0546875 2.21875 -0.390625 C 1.695312 -0.722656 1.304688 -1.191406 1.046875 -1.796875 C 0.785156 -2.398438 0.65625 -3.109375 0.65625 -3.921875 C 0.65625 -4.515625 0.738281 -5.054688 0.90625 -5.546875 C 1.070312 -6.046875 1.3125 -6.472656 1.625 -6.828125 C 1.9375 -7.191406 2.320312 -7.472656 2.78125 -7.671875 C 3.25 -7.867188 3.785156 -7.96875 4.390625 -7.96875 C 4.773438 -7.96875 5.160156 -7.921875 5.546875 -7.828125 C 5.929688 -7.742188 6.285156 -7.617188 6.609375 -7.453125 L 6.15625 -6.390625 C 5.882812 -6.523438 5.597656 -6.640625 5.296875 -6.734375 C 5.003906 -6.828125 4.695312 -6.875 4.375 -6.875 Z M 4.375 -6.875 "/></g></g></g><g fill="#000000" fill-opacity="1"><g transform="translate(158.037056, 272.377072)"><g><path d="M 7.015625 0 L 5.53125 0 L 3.09375 -3.5625 L 2.328125 -2.9375 L 2.328125 0 L 1.03125 0 L 1.03125 -7.859375 L 2.328125 -7.859375 L 2.328125 -4.09375 C 2.484375 -4.289062 2.640625 -4.484375 2.796875 -4.671875 C 2.960938 -4.867188 3.125 -5.066406 3.28125 -5.265625 L 5.5 -7.859375 L 6.953125 -7.859375 L 4.015625 -4.421875 Z M 7.015625 0 "/></g></g></g><g fill="#000000" fill-opacity="1"><g transform="translate(167.25209, 272.377072)"><g/></g></g><g fill="#000000" fill-opacity="1"><g transform="translate(172.307483, 272.377072)"><g><path d="M 4.375 -6.875 C 4 -6.875 3.660156 -6.804688 3.359375 -6.671875 C 3.066406 -6.535156 2.816406 -6.335938 2.609375 -6.078125 C 2.410156 -5.816406 2.257812 -5.503906 2.15625 -5.140625 C 2.050781 -4.785156 2 -4.378906 2 -3.921875 C 2 -3.316406 2.082031 -2.789062 2.25 -2.34375 C 2.425781 -1.90625 2.6875 -1.566406 3.03125 -1.328125 C 3.382812 -1.097656 3.828125 -0.984375 4.359375 -0.984375 C 4.691406 -0.984375 5.015625 -1.015625 5.328125 -1.078125 C 5.648438 -1.148438 5.976562 -1.238281 6.3125 -1.34375 L 6.3125 -0.25 C 6 -0.125 5.675781 -0.0351562 5.34375 0.015625 C 5.019531 0.078125 4.644531 0.109375 4.21875 0.109375 C 3.414062 0.109375 2.75 -0.0546875 2.21875 -0.390625 C 1.695312 -0.722656 1.304688 -1.191406 1.046875 -1.796875 C 0.785156 -2.398438 0.65625 -3.109375 0.65625 -3.921875 C 0.65625 -4.515625 0.738281 -5.054688 0.90625 -5.546875 C 1.070312 -6.046875 1.3125 -6.472656 1.625 -6.828125 C 1.9375 -7.191406 2.320312 -7.472656 2.78125 -7.671875 C 3.25 -7.867188 3.785156 -7.96875 4.390625 -7.96875 C 4.773438 -7.96875 5.160156 -7.921875 5.546875 -7.828125 C 5.929688 -7.742188 6.285156 -7.617188 6.609375 -7.453125 L 6.15625 -6.390625 C 5.882812 -6.523438 5.597656 -6.640625 5.296875 -6.734375 C 5.003906 -6.828125 4.695312 -6.875 4.375 -6.875 Z M 4.375 -6.875 "/></g></g></g><g fill="#000000" fill-opacity="1"><g transform="translate(181.474211, 272.377072)"><g><path d="M 3.234375 -7.859375 C 3.910156 -7.859375 4.46875 -7.773438 4.90625 -7.609375 C 5.351562 -7.441406 5.6875 -7.1875 5.90625 -6.84375 C 6.125 -6.507812 6.234375 -6.082031 6.234375 -5.5625 C 6.234375 -5.175781 6.160156 -4.847656 6.015625 -4.578125 C 5.867188 -4.304688 5.679688 -4.082031 5.453125 -3.90625 C 5.222656 -3.726562 4.972656 -3.582031 4.703125 -3.46875 L 6.9375 0 L 5.484375 0 L 3.578125 -3.140625 L 2.328125 -3.140625 L 2.328125 0 L 1.03125 0 L 1.03125 -7.859375 Z M 3.15625 -6.78125 L 2.328125 -6.78125 L 2.328125 -4.21875 L 3.21875 -4.21875 C 3.8125 -4.21875 4.242188 -4.328125 4.515625 -4.546875 C 4.785156 -4.765625 4.921875 -5.09375 4.921875 -5.53125 C 4.921875 -5.976562 4.773438 -6.296875 4.484375 -6.484375 C 4.203125 -6.679688 3.757812 -6.78125 3.15625 -6.78125 Z M 3.15625 -6.78125 "/></g></g></g><g fill="#000000" fill-opacity="1"><g transform="translate(190.694612, 272.377072)"><g><path d="M 5.484375 0 L 1.03125 0 L 1.03125 -7.859375 L 5.484375 -7.859375 L 5.484375 -6.765625 L 2.328125 -6.765625 L 2.328125 -4.640625 L 5.28125 -4.640625 L 5.28125 -3.5625 L 2.328125 -3.5625 L 2.328125 -1.09375 L 5.484375 -1.09375 Z M 5.484375 0 "/></g></g></g><g fill="#000000" fill-opacity="1"><g transform="translate(199.029413, 272.377072)"><g><path d="M 5.890625 0 L 5.125 -2.1875 L 2.125 -2.1875 L 1.359375 0 L 0 0 L 2.921875 -7.890625 L 4.34375 -7.890625 L 7.265625 0 Z M 4.796875 -3.28125 L 4.046875 -5.4375 C 4.015625 -5.53125 3.972656 -5.660156 3.921875 -5.828125 C 3.867188 -5.992188 3.816406 -6.164062 3.765625 -6.34375 C 3.710938 -6.53125 3.664062 -6.679688 3.625 -6.796875 C 3.59375 -6.648438 3.550781 -6.484375 3.5 -6.296875 C 3.445312 -6.117188 3.394531 -5.953125 3.34375 -5.796875 C 3.300781 -5.640625 3.265625 -5.519531 3.234375 -5.4375 L 2.484375 -3.28125 Z M 4.796875 -3.28125 "/></g></g></g><g fill="#000000" fill-opacity="1"><g transform="translate(208.496709, 272.377072)"><g><path d="M 3.75 0 L 2.453125 0 L 2.453125 -6.75 L 0.15625 -6.75 L 0.15625 -7.859375 L 6.046875 -7.859375 L 6.046875 -6.75 L 3.75 -6.75 Z M 3.75 0 "/></g></g></g><g fill="#000000" fill-opacity="1"><g transform="translate(216.906651, 272.377072)"><g><path d="M 1.03125 0 L 1.03125 -7.859375 L 2.328125 -7.859375 L 2.328125 0 Z M 1.03125 0 "/></g></g></g><g fill="#000000" fill-opacity="1"><g transform="translate(222.4612, 272.377072)"><g><path d="M 6.859375 -7.859375 L 4.109375 0 L 2.75 0 L 0 -7.859375 L 1.328125 -7.859375 L 2.96875 -2.9375 C 3.019531 -2.789062 3.078125 -2.613281 3.140625 -2.40625 C 3.203125 -2.207031 3.257812 -2.003906 3.3125 -1.796875 C 3.363281 -1.585938 3.398438 -1.398438 3.421875 -1.234375 C 3.453125 -1.398438 3.492188 -1.585938 3.546875 -1.796875 C 3.597656 -2.003906 3.648438 -2.207031 3.703125 -2.40625 C 3.765625 -2.613281 3.820312 -2.789062 3.875 -2.9375 L 5.53125 -7.859375 Z M 6.859375 -7.859375 "/></g></g></g><g fill="#000000" fill-opacity="1"><g transform="translate(231.509849, 272.377072)"><g><path d="M 1.03125 0 L 1.03125 -7.859375 L 2.328125 -7.859375 L 2.328125 0 Z M 1.03125 0 "/></g></g></g><g fill="#000000" fill-opacity="1"><g transform="translate(237.064398, 272.377072)"><g><path d="M 3.75 0 L 2.453125 0 L 2.453125 -6.75 L 0.15625 -6.75 L 0.15625 -7.859375 L 6.046875 -7.859375 L 6.046875 -6.75 L 3.75 -6.75 Z M 3.75 0 "/></g></g></g><g fill="#000000" fill-opacity="1"><g transform="translate(245.474341, 272.377072)"><g><path d="M 3.25 -4.265625 L 5.125 -7.859375 L 6.515625 -7.859375 L 3.90625 -3.046875 L 3.90625 0 L 2.609375 0 L 2.609375 -3 L 0 -7.859375 L 1.40625 -7.859375 Z M 3.25 -4.265625 "/></g></g></g><g fill="#000000" fill-opacity="1"><g transform="translate(254.183454, 272.377072)"><g/></g></g><g fill="#000000" fill-opacity="1"><g transform="translate(132.784551, 176.68471)"><g><path d="M 34.640625 -79.328125 C 29.710938 -77.941406 25.671875 -75.554688 22.515625 -72.171875 C 19.359375 -68.785156 16.988281 -64.820312 15.40625 -60.28125 C 13.832031 -55.738281 12.988281 -51.003906 12.875 -46.078125 C 12.757812 -41.148438 13.238281 -36.488281 14.3125 -32.09375 C 15.550781 -27.707031 17.457031 -23.414062 20.03125 -19.21875 C 22.613281 -15.03125 25.710938 -11.359375 29.328125 -8.203125 C 32.941406 -5.046875 36.960938 -2.8125 41.390625 -1.5 C 45.816406 -0.1875 50.492188 -0.1875 55.421875 -1.5 C 59.734375 -2.65625 63.332031 -4.597656 66.21875 -7.328125 C 69.101562 -10.066406 71.390625 -13.300781 73.078125 -17.03125 C 74.773438 -20.757812 75.894531 -24.703125 76.4375 -28.859375 L 76.4375 -14.203125 C 71.207031 -7.578125 64.28125 -3.148438 55.65625 -0.921875 C 50.113281 0.691406 44.6875 1.132812 39.375 0.40625 C 34.0625 -0.320312 29.132812 -2.035156 24.59375 -4.734375 C 20.050781 -7.429688 16.101562 -10.914062 12.75 -15.1875 C 9.40625 -19.457031 6.960938 -24.328125 5.421875 -29.796875 C 4.035156 -35.253906 3.726562 -40.660156 4.5 -46.015625 C 5.269531 -51.367188 6.984375 -56.375 9.640625 -61.03125 C 12.296875 -65.6875 15.722656 -69.664062 19.921875 -72.96875 C 24.117188 -76.28125 28.945312 -78.671875 34.40625 -80.140625 C 39.5625 -81.523438 44.160156 -82.117188 48.203125 -81.921875 C 52.242188 -81.734375 55.765625 -81.0625 58.765625 -79.90625 C 61.773438 -78.75 64.28125 -77.457031 66.28125 -76.03125 C 68.28125 -74.613281 69.757812 -73.363281 70.71875 -72.28125 C 71.6875 -71.207031 72.171875 -70.671875 72.171875 -70.671875 L 72.171875 -58.65625 C 72.171875 -58.65625 71.820312 -59.304688 71.125 -60.609375 C 70.4375 -61.921875 69.398438 -63.554688 68.015625 -65.515625 C 66.628906 -67.484375 64.894531 -69.503906 62.8125 -71.578125 C 60.738281 -73.660156 58.316406 -75.507812 55.546875 -77.125 C 52.773438 -78.75 49.65625 -79.8125 46.1875 -80.3125 C 42.71875 -80.8125 38.867188 -80.484375 34.640625 -79.328125 Z M 34.640625 -79.328125 "/></g></g></g><g fill="#000000" fill-opacity="1"><g transform="translate(171.700964, 208.608303)"><g><path d="M 38.21875 -44.921875 C 43.070312 -44.609375 47.363281 -43.738281 51.09375 -42.3125 C 54.820312 -40.894531 57.742188 -38.625 59.859375 -35.5 C 61.984375 -32.382812 63.046875 -28.09375 63.046875 -22.625 C 63.046875 -16.46875 61.640625 -11.753906 58.828125 -8.484375 C 56.015625 -5.210938 52.222656 -3 47.453125 -1.84375 C 42.679688 -0.6875 37.332031 -0.0703125 31.40625 0 L 4.046875 0 L 4.046875 -81.515625 L 24.015625 -81.515625 C 29.785156 -81.515625 35.035156 -80.898438 39.765625 -79.671875 C 44.503906 -78.441406 48.257812 -76.476562 51.03125 -73.78125 C 53.800781 -71.09375 55.1875 -67.515625 55.1875 -63.046875 C 55.1875 -57.890625 53.53125 -53.828125 50.21875 -50.859375 C 46.914062 -47.898438 42.914062 -45.921875 38.21875 -44.921875 Z M 54.046875 -22.625 C 54.046875 -27.789062 53.347656 -31.832031 51.953125 -34.75 C 50.566406 -37.675781 48.738281 -39.832031 46.46875 -41.21875 C 44.195312 -42.601562 41.753906 -43.46875 39.140625 -43.8125 C 36.523438 -44.164062 33.945312 -44.34375 31.40625 -44.34375 C 28.707031 -44.34375 26.144531 -45.09375 23.71875 -46.59375 C 21.300781 -48.09375 19.242188 -50.148438 17.546875 -52.765625 C 16.546875 -54.304688 15.679688 -56.054688 14.953125 -58.015625 C 14.222656 -59.984375 13.625 -62.082031 13.15625 -64.3125 L 13.15625 -0.921875 L 30.484375 -0.921875 C 33.097656 -0.921875 35.769531 -1.09375 38.5 -1.4375 C 41.238281 -1.789062 43.78125 -2.640625 46.125 -3.984375 C 48.476562 -5.328125 50.382812 -7.476562 51.84375 -10.4375 C 53.3125 -13.40625 54.046875 -17.46875 54.046875 -22.625 Z M 46.1875 -63.046875 C 46.1875 -67.429688 45.109375 -70.910156 42.953125 -73.484375 C 40.796875 -76.066406 38.023438 -77.914062 34.640625 -79.03125 C 31.253906 -80.15625 27.710938 -80.71875 24.015625 -80.71875 L 13.15625 -80.71875 L 13.15625 -73.09375 C 13.15625 -69.09375 13.617188 -65.414062 14.546875 -62.0625 C 15.472656 -58.71875 16.78125 -55.8125 18.46875 -53.34375 C 21.863281 -47.957031 26.175781 -45.265625 31.40625 -45.265625 C 34.019531 -45.265625 36.441406 -45.878906 38.671875 -47.109375 C 40.910156 -48.335938 42.722656 -50.257812 44.109375 -52.875 C 45.492188 -55.5 46.1875 -58.890625 46.1875 -63.046875 Z M 46.1875 -63.046875 "/></g></g></g><g fill="#000000" fill-opacity="1"><g transform="translate(90.416945, 252.198103)"><g><path d="M 8.15625 -18.6875 C 7 -18.363281 6.046875 -17.800781 5.296875 -17 C 4.554688 -16.207031 4 -15.273438 3.625 -14.203125 C 3.257812 -13.128906 3.0625 -12.007812 3.03125 -10.84375 C 3.007812 -9.6875 3.125 -8.59375 3.375 -7.5625 C 3.664062 -6.53125 4.113281 -5.519531 4.71875 -4.53125 C 5.320312 -3.539062 6.050781 -2.671875 6.90625 -1.921875 C 7.757812 -1.179688 8.707031 -0.65625 9.75 -0.34375 C 10.789062 -0.0390625 11.894531 -0.046875 13.0625 -0.359375 C 14.070312 -0.628906 14.914062 -1.082031 15.59375 -1.71875 C 16.28125 -2.363281 16.820312 -3.125 17.21875 -4 C 17.613281 -4.882812 17.878906 -5.816406 18.015625 -6.796875 L 18.015625 -3.34375 C 16.773438 -1.78125 15.140625 -0.738281 13.109375 -0.21875 C 11.804688 0.164062 10.53125 0.269531 9.28125 0.09375 C 8.03125 -0.0703125 6.867188 -0.472656 5.796875 -1.109375 C 4.722656 -1.742188 3.789062 -2.566406 3 -3.578125 C 2.21875 -4.585938 1.644531 -5.734375 1.28125 -7.015625 C 0.945312 -8.304688 0.867188 -9.582031 1.046875 -10.84375 C 1.234375 -12.101562 1.640625 -13.28125 2.265625 -14.375 C 2.890625 -15.46875 3.695312 -16.40625 4.6875 -17.1875 C 5.675781 -17.96875 6.816406 -18.53125 8.109375 -18.875 C 9.316406 -19.207031 10.394531 -19.347656 11.34375 -19.296875 C 12.300781 -19.253906 13.132812 -19.097656 13.84375 -18.828125 C 14.550781 -18.554688 15.140625 -18.25 15.609375 -17.90625 C 16.085938 -17.570312 16.4375 -17.273438 16.65625 -17.015625 C 16.882812 -16.765625 17 -16.640625 17 -16.640625 L 17 -13.8125 C 17 -13.8125 16.914062 -13.96875 16.75 -14.28125 C 16.59375 -14.59375 16.347656 -14.976562 16.015625 -15.4375 C 15.691406 -15.894531 15.285156 -16.367188 14.796875 -16.859375 C 14.304688 -17.347656 13.734375 -17.785156 13.078125 -18.171875 C 12.429688 -18.554688 11.695312 -18.804688 10.875 -18.921875 C 10.0625 -19.035156 9.15625 -18.957031 8.15625 -18.6875 Z M 8.15625 -18.6875 "/></g></g></g><g fill="#000000" fill-opacity="1"><g transform="translate(110.381563, 252.198103)"><g><path d="M 3.015625 -11.296875 L 3.015625 0 L 0.953125 0 L 0.953125 -19.203125 L 3.015625 -19.203125 L 3.015625 -12.78125 C 3.015625 -11.988281 3.148438 -11.382812 3.421875 -10.96875 C 3.691406 -10.5625 4.054688 -10.285156 4.515625 -10.140625 C 4.972656 -9.992188 5.476562 -9.925781 6.03125 -9.9375 C 6.59375 -9.945312 7.171875 -9.96875 7.765625 -10 C 8.359375 -10.039062 8.925781 -10.046875 9.46875 -10.015625 C 10.007812 -9.992188 10.484375 -9.867188 10.890625 -9.640625 C 11.296875 -9.410156 11.601562 -9.023438 11.8125 -8.484375 L 11.8125 -19.203125 L 13.921875 -19.203125 L 13.921875 0 L 11.8125 0 L 11.8125 -7.015625 C 11.8125 -7.796875 11.671875 -8.390625 11.390625 -8.796875 C 11.117188 -9.203125 10.753906 -9.472656 10.296875 -9.609375 C 9.847656 -9.753906 9.347656 -9.828125 8.796875 -9.828125 C 8.242188 -9.828125 7.671875 -9.804688 7.078125 -9.765625 C 6.492188 -9.734375 5.925781 -9.734375 5.375 -9.765625 C 4.832031 -9.804688 4.351562 -9.929688 3.9375 -10.140625 C 3.519531 -10.359375 3.210938 -10.742188 3.015625 -11.296875 Z M 3.015625 -11.296875 "/></g></g></g><g fill="#000000" fill-opacity="1"><g transform="translate(126.266305, 252.198103)"><g><path d="M 14.171875 0 L 11.09375 -7.375 C 9.9375 -7.257812 8.976562 -7.019531 8.21875 -6.65625 C 7.46875 -6.300781 6.863281 -5.863281 6.40625 -5.34375 C 5.945312 -4.820312 5.578125 -4.28125 5.296875 -3.71875 C 5.015625 -3.164062 4.765625 -2.644531 4.546875 -2.15625 C 4.285156 -1.476562 4.003906 -0.914062 3.703125 -0.46875 C 3.410156 -0.03125 2.957031 0.175781 2.34375 0.15625 C 2.269531 0.144531 2.203125 0.128906 2.140625 0.109375 C 2.078125 0.0859375 2 0.0390625 1.90625 -0.03125 C 1.15625 -0.351562 0.851562 -1.140625 1 -2.390625 C 1.070312 -2.992188 1.203125 -3.671875 1.390625 -4.421875 C 1.585938 -5.171875 1.847656 -5.984375 2.171875 -6.859375 C 2.660156 -8.160156 3.234375 -9.539062 3.890625 -11 C 4.554688 -12.457031 5.253906 -13.898438 5.984375 -15.328125 C 6.722656 -16.753906 7.441406 -18.046875 8.140625 -19.203125 L 8.328125 -19.203125 L 16.453125 0 Z M 11.015625 -7.5625 L 7.015625 -16.859375 C 6.179688 -15.265625 5.34375 -13.582031 4.5 -11.8125 C 3.65625 -10.050781 2.941406 -8.378906 2.359375 -6.796875 C 2.035156 -5.929688 1.78125 -5.125 1.59375 -4.375 C 1.40625 -3.632812 1.273438 -2.972656 1.203125 -2.390625 C 1.179688 -1.828125 1.222656 -1.347656 1.328125 -0.953125 C 1.441406 -0.566406 1.660156 -0.320312 1.984375 -0.21875 C 2.078125 -0.195312 2.144531 -0.175781 2.1875 -0.15625 C 2.238281 -0.144531 2.296875 -0.117188 2.359375 -0.078125 C 2.910156 -0.046875 3.320312 -0.238281 3.59375 -0.65625 C 3.863281 -1.070312 4.109375 -1.585938 4.328125 -2.203125 C 4.546875 -2.710938 4.796875 -3.25 5.078125 -3.8125 C 5.367188 -4.382812 5.753906 -4.929688 6.234375 -5.453125 C 6.722656 -5.984375 7.347656 -6.441406 8.109375 -6.828125 C 8.867188 -7.210938 9.835938 -7.457031 11.015625 -7.5625 Z M 11.015625 -7.5625 "/></g></g></g><g fill="#000000" fill-opacity="1"><g transform="translate(144.680568, 252.198103)"><g><path d="M 8.65625 -10.609375 C 9.59375 -10.390625 10.351562 -9.972656 10.9375 -9.359375 C 11.519531 -8.742188 12.003906 -8.019531 12.390625 -7.1875 C 12.773438 -6.351562 13.148438 -5.507812 13.515625 -4.65625 C 13.859375 -3.875 14.210938 -3.140625 14.578125 -2.453125 C 14.941406 -1.773438 15.347656 -1.234375 15.796875 -0.828125 C 16.253906 -0.421875 16.78125 -0.21875 17.375 -0.21875 L 17.375 0 C 15.96875 0 14.847656 -0.1875 14.015625 -0.5625 C 13.191406 -0.945312 12.570312 -1.453125 12.15625 -2.078125 C 11.738281 -2.703125 11.4375 -3.382812 11.25 -4.125 C 11.070312 -4.875 10.929688 -5.617188 10.828125 -6.359375 C 10.734375 -7.109375 10.59375 -7.796875 10.40625 -8.421875 C 10.21875 -9.046875 9.898438 -9.546875 9.453125 -9.921875 C 9.003906 -10.304688 8.347656 -10.5 7.484375 -10.5 C 6.097656 -10.5 4.988281 -11.148438 4.15625 -12.453125 C 3.6875 -13.210938 3.332031 -14.148438 3.09375 -15.265625 L 3.09375 0 L 0.953125 0 L 0.953125 -19.234375 L 5.734375 -19.234375 C 7.078125 -19.234375 8.296875 -19.085938 9.390625 -18.796875 C 10.492188 -18.503906 11.375 -18.046875 12.03125 -17.421875 C 12.695312 -16.796875 13.03125 -15.96875 13.03125 -14.9375 C 13.03125 -14.039062 12.828125 -13.289062 12.421875 -12.6875 C 12.023438 -12.082031 11.492188 -11.609375 10.828125 -11.265625 C 10.171875 -10.929688 9.445312 -10.710938 8.65625 -10.609375 Z M 10.875 -14.9375 C 10.875 -15.96875 10.628906 -16.78125 10.140625 -17.375 C 9.648438 -17.976562 9.015625 -18.398438 8.234375 -18.640625 C 7.460938 -18.890625 6.628906 -19.015625 5.734375 -19.015625 L 3.09375 -19.015625 L 3.09375 -17.328125 C 3.09375 -16.328125 3.207031 -15.4375 3.4375 -14.65625 C 3.664062 -13.882812 3.972656 -13.195312 4.359375 -12.59375 C 4.734375 -12.03125 5.191406 -11.570312 5.734375 -11.21875 C 6.285156 -10.863281 6.867188 -10.6875 7.484375 -10.6875 L 7.671875 -10.6875 C 8.546875 -10.738281 9.296875 -11.097656 9.921875 -11.765625 C 10.554688 -12.441406 10.875 -13.5 10.875 -14.9375 Z M 10.875 -14.9375 "/></g></g></g><g fill="#000000" fill-opacity="1"><g transform="translate(164.019606, 252.198103)"><g><path d="M 17.4375 -19.203125 L 17.4375 0 L 15.375 0 L 15.375 -18.546875 C 14.46875 -18.171875 13.691406 -17.566406 13.046875 -16.734375 C 12.398438 -15.910156 11.859375 -14.941406 11.421875 -13.828125 C 10.984375 -12.710938 10.640625 -11.523438 10.390625 -10.265625 C 10.140625 -9.003906 9.945312 -7.742188 9.8125 -6.484375 C 9.6875 -5.222656 9.601562 -4.035156 9.5625 -2.921875 C 9.519531 -1.804688 9.5 -0.832031 9.5 0 L 9.21875 0 L 1.875 -16.921875 L 1.109375 -18.71875 L 1.109375 0 L 0.953125 0 L 0.953125 -19.203125 L 3.203125 -19.203125 L 9.40625 -4.875 C 9.519531 -6.125 9.6875 -7.414062 9.90625 -8.75 C 10.125 -10.082031 10.421875 -11.367188 10.796875 -12.609375 C 11.179688 -13.847656 11.671875 -14.96875 12.265625 -15.96875 C 12.867188 -16.96875 13.59375 -17.753906 14.4375 -18.328125 C 15.28125 -18.910156 16.28125 -19.203125 17.4375 -19.203125 Z M 17.4375 -19.203125 "/></g></g></g><g fill="#000000" fill-opacity="1"><g transform="translate(183.413037, 252.198103)"><g><path d="M 22.65625 -3.53125 L 22.71875 -3.421875 C 22.382812 -2.992188 22.015625 -2.554688 21.609375 -2.109375 C 21.203125 -1.660156 20.75 -1.285156 20.25 -0.984375 C 19.75 -0.691406 19.191406 -0.546875 18.578125 -0.546875 C 17.722656 -0.546875 16.925781 -0.710938 16.1875 -1.046875 C 15.445312 -1.378906 14.796875 -1.765625 14.234375 -2.203125 C 13.359375 -1.566406 12.453125 -0.976562 11.515625 -0.4375 C 10.585938 0.101562 9.644531 0.53125 8.6875 0.84375 C 7.738281 1.164062 6.789062 1.300781 5.84375 1.25 C 4.90625 1.195312 3.984375 0.890625 3.078125 0.328125 C 2.390625 -0.128906 1.867188 -0.734375 1.515625 -1.484375 C 1.160156 -2.234375 0.984375 -3.050781 0.984375 -3.9375 C 0.984375 -4.832031 1.175781 -5.710938 1.5625 -6.578125 C 1.957031 -7.453125 2.550781 -8.25 3.34375 -8.96875 C 4.144531 -9.695312 5.171875 -10.257812 6.421875 -10.65625 C 5.609375 -11.75 5.070312 -12.828125 4.8125 -13.890625 C 4.5625 -14.960938 4.546875 -15.941406 4.765625 -16.828125 C 4.992188 -17.722656 5.4375 -18.4375 6.09375 -18.96875 C 6.757812 -19.507812 7.613281 -19.78125 8.65625 -19.78125 C 9.5 -19.78125 10.242188 -19.570312 10.890625 -19.15625 C 11.535156 -18.738281 12.007812 -18.191406 12.3125 -17.515625 C 12.625 -16.847656 12.726562 -16.132812 12.625 -15.375 C 12.53125 -14.613281 12.171875 -13.875 11.546875 -13.15625 C 10.921875 -12.4375 9.984375 -11.832031 8.734375 -11.34375 C 9.640625 -10.125 10.65625 -8.828125 11.78125 -7.453125 C 12.90625 -6.078125 14.128906 -4.734375 15.453125 -3.421875 C 16.160156 -4.023438 16.753906 -4.644531 17.234375 -5.28125 C 17.710938 -5.925781 18.050781 -6.425781 18.25 -6.78125 L 18.390625 -6.640625 C 18.117188 -6.179688 17.75 -5.644531 17.28125 -5.03125 C 16.820312 -4.414062 16.25 -3.828125 15.5625 -3.265625 C 16.070312 -2.898438 16.570312 -2.554688 17.0625 -2.234375 C 17.5625 -1.921875 18.09375 -1.675781 18.65625 -1.5 C 19.457031 -1.3125 20.15625 -1.382812 20.75 -1.71875 C 21.351562 -2.0625 21.988281 -2.664062 22.65625 -3.53125 Z M 6.5 -10.5625 C 5.5625 -10.207031 4.742188 -9.71875 4.046875 -9.09375 C 3.359375 -8.46875 2.851562 -7.757812 2.53125 -6.96875 C 2.207031 -6.1875 2.109375 -5.359375 2.234375 -4.484375 C 2.359375 -3.617188 2.765625 -2.757812 3.453125 -1.90625 C 4.328125 -0.882812 5.34375 -0.273438 6.5 -0.078125 C 7.664062 0.117188 8.898438 0.0078125 10.203125 -0.40625 C 11.503906 -0.820312 12.800781 -1.445312 14.09375 -2.28125 C 13.53125 -2.757812 12.898438 -3.347656 12.203125 -4.046875 C 11.503906 -4.742188 10.796875 -5.484375 10.078125 -6.265625 C 9.359375 -7.054688 8.6875 -7.828125 8.0625 -8.578125 C 7.4375 -9.335938 6.914062 -10 6.5 -10.5625 Z M 8.65625 -19.5 C 7.65625 -19.5 6.914062 -19.203125 6.4375 -18.609375 C 5.957031 -18.023438 5.859375 -17.140625 6.140625 -15.953125 C 6.429688 -14.765625 7.25 -13.273438 8.59375 -11.484375 C 9.34375 -11.898438 9.9375 -12.441406 10.375 -13.109375 C 10.820312 -13.785156 11.117188 -14.488281 11.265625 -15.21875 C 11.410156 -15.957031 11.40625 -16.648438 11.25 -17.296875 C 11.09375 -17.953125 10.796875 -18.484375 10.359375 -18.890625 C 9.929688 -19.296875 9.363281 -19.5 8.65625 -19.5 Z M 8.65625 -19.5 "/></g></g></g><g fill="#000000" fill-opacity="1"><g transform="translate(208.083121, 252.198103)"><g><path d="M 9 -10.578125 C 10.144531 -10.503906 11.15625 -10.300781 12.03125 -9.96875 C 12.914062 -9.632812 13.609375 -9.097656 14.109375 -8.359375 C 14.609375 -7.628906 14.859375 -6.617188 14.859375 -5.328125 C 14.859375 -3.878906 14.523438 -2.769531 13.859375 -2 C 13.191406 -1.226562 12.296875 -0.707031 11.171875 -0.4375 C 10.054688 -0.164062 8.800781 -0.0195312 7.40625 0 L 0.953125 0 L 0.953125 -19.203125 L 5.65625 -19.203125 C 7.019531 -19.203125 8.257812 -19.054688 9.375 -18.765625 C 10.488281 -18.472656 11.367188 -18.007812 12.015625 -17.375 C 12.671875 -16.75 13 -15.910156 13 -14.859375 C 13 -13.640625 12.609375 -12.679688 11.828125 -11.984375 C 11.046875 -11.285156 10.101562 -10.816406 9 -10.578125 Z M 12.734375 -5.328125 C 12.734375 -6.546875 12.566406 -7.5 12.234375 -8.1875 C 11.910156 -8.875 11.476562 -9.378906 10.9375 -9.703125 C 10.40625 -10.035156 9.832031 -10.242188 9.21875 -10.328125 C 8.601562 -10.410156 8 -10.453125 7.40625 -10.453125 C 6.769531 -10.453125 6.164062 -10.625 5.59375 -10.96875 C 5.019531 -11.320312 4.535156 -11.8125 4.140625 -12.4375 C 3.898438 -12.789062 3.691406 -13.195312 3.515625 -13.65625 C 3.347656 -14.125 3.207031 -14.625 3.09375 -15.15625 L 3.09375 -0.21875 L 7.1875 -0.21875 C 7.800781 -0.21875 8.425781 -0.257812 9.0625 -0.34375 C 9.707031 -0.425781 10.304688 -0.625 10.859375 -0.9375 C 11.421875 -1.257812 11.875 -1.769531 12.21875 -2.46875 C 12.5625 -3.164062 12.734375 -4.117188 12.734375 -5.328125 Z M 10.875 -14.859375 C 10.875 -15.890625 10.617188 -16.707031 10.109375 -17.3125 C 9.609375 -17.914062 8.957031 -18.347656 8.15625 -18.609375 C 7.363281 -18.878906 6.53125 -19.015625 5.65625 -19.015625 L 3.09375 -19.015625 L 3.09375 -17.21875 C 3.09375 -16.28125 3.203125 -15.414062 3.421875 -14.625 C 3.640625 -13.832031 3.953125 -13.144531 4.359375 -12.5625 C 5.148438 -11.289062 6.164062 -10.65625 7.40625 -10.65625 C 8.019531 -10.65625 8.585938 -10.800781 9.109375 -11.09375 C 9.640625 -11.382812 10.066406 -11.835938 10.390625 -12.453125 C 10.710938 -13.078125 10.875 -13.878906 10.875 -14.859375 Z M 10.875 -14.859375 "/></g></g></g><g fill="#000000" fill-opacity="1"><g transform="translate(224.892637, 252.198103)"><g><path d="M 3.046875 -12.8125 L 3.046875 -0.21875 L 7.640625 -0.21875 C 8.816406 -0.21875 9.78125 -0.503906 10.53125 -1.078125 C 11.289062 -1.660156 11.914062 -2.644531 12.40625 -4.03125 L 11.78125 0 L 0.953125 0 L 0.953125 -19.203125 L 11.9375 -19.203125 L 11.9375 -17.03125 C 11.300781 -17.644531 10.679688 -18.09375 10.078125 -18.375 C 9.484375 -18.65625 8.8125 -18.832031 8.0625 -18.90625 C 7.3125 -18.976562 6.382812 -19.015625 5.28125 -19.015625 L 3.046875 -19.015625 L 3.046875 -14.609375 C 3.046875 -13.378906 3.253906 -12.4375 3.671875 -11.78125 C 4.085938 -11.125 4.710938 -10.679688 5.546875 -10.453125 C 6.378906 -10.234375 7.421875 -10.125 8.671875 -10.125 L 8.671875 -7.96875 C 8.273438 -8.425781 7.800781 -8.785156 7.25 -9.046875 C 6.695312 -9.304688 6.132812 -9.578125 5.5625 -9.859375 C 4.988281 -10.140625 4.472656 -10.5 4.015625 -10.9375 C 3.566406 -11.382812 3.242188 -12.007812 3.046875 -12.8125 Z M 3.046875 -12.8125 "/></g></g></g><g fill="#000000" fill-opacity="1"><g transform="translate(239.254216, 252.198103)"><g><path d="M 14.171875 0 L 11.09375 -7.375 C 9.9375 -7.257812 8.976562 -7.019531 8.21875 -6.65625 C 7.46875 -6.300781 6.863281 -5.863281 6.40625 -5.34375 C 5.945312 -4.820312 5.578125 -4.28125 5.296875 -3.71875 C 5.015625 -3.164062 4.765625 -2.644531 4.546875 -2.15625 C 4.285156 -1.476562 4.003906 -0.914062 3.703125 -0.46875 C 3.410156 -0.03125 2.957031 0.175781 2.34375 0.15625 C 2.269531 0.144531 2.203125 0.128906 2.140625 0.109375 C 2.078125 0.0859375 2 0.0390625 1.90625 -0.03125 C 1.15625 -0.351562 0.851562 -1.140625 1 -2.390625 C 1.070312 -2.992188 1.203125 -3.671875 1.390625 -4.421875 C 1.585938 -5.171875 1.847656 -5.984375 2.171875 -6.859375 C 2.660156 -8.160156 3.234375 -9.539062 3.890625 -11 C 4.554688 -12.457031 5.253906 -13.898438 5.984375 -15.328125 C 6.722656 -16.753906 7.441406 -18.046875 8.140625 -19.203125 L 8.328125 -19.203125 L 16.453125 0 Z M 11.015625 -7.5625 L 7.015625 -16.859375 C 6.179688 -15.265625 5.34375 -13.582031 4.5 -11.8125 C 3.65625 -10.050781 2.941406 -8.378906 2.359375 -6.796875 C 2.035156 -5.929688 1.78125 -5.125 1.59375 -4.375 C 1.40625 -3.632812 1.273438 -2.972656 1.203125 -2.390625 C 1.179688 -1.828125 1.222656 -1.347656 1.328125 -0.953125 C 1.441406 -0.566406 1.660156 -0.320312 1.984375 -0.21875 C 2.078125 -0.195312 2.144531 -0.175781 2.1875 -0.15625 C 2.238281 -0.144531 2.296875 -0.117188 2.359375 -0.078125 C 2.910156 -0.046875 3.320312 -0.238281 3.59375 -0.65625 C 3.863281 -1.070312 4.109375 -1.585938 4.328125 -2.203125 C 4.546875 -2.710938 4.796875 -3.25 5.078125 -3.8125 C 5.367188 -4.382812 5.753906 -4.929688 6.234375 -5.453125 C 6.722656 -5.984375 7.347656 -6.441406 8.109375 -6.828125 C 8.867188 -7.210938 9.835938 -7.457031 11.015625 -7.5625 Z M 11.015625 -7.5625 "/></g></g></g><g fill="#000000" fill-opacity="1"><g transform="translate(257.668479, 252.198103)"><g><path d="M 7.15625 0 L 0.953125 0 L 0.953125 -19.203125 L 7.15625 -19.203125 C 8.457031 -19.203125 9.679688 -18.953125 10.828125 -18.453125 C 11.972656 -17.953125 12.984375 -17.265625 13.859375 -16.390625 C 14.734375 -15.515625 15.421875 -14.492188 15.921875 -13.328125 C 16.421875 -12.171875 16.671875 -10.921875 16.671875 -9.578125 C 16.671875 -8.253906 16.421875 -7.007812 15.921875 -5.84375 C 15.421875 -4.6875 14.734375 -3.664062 13.859375 -2.78125 C 12.984375 -1.90625 11.972656 -1.222656 10.828125 -0.734375 C 9.679688 -0.242188 8.457031 0 7.15625 0 Z M 3.078125 -19.015625 L 3.078125 -0.21875 L 7.15625 -0.21875 C 8.1875 -0.21875 9.15625 -0.457031 10.0625 -0.9375 C 10.96875 -1.414062 11.765625 -2.085938 12.453125 -2.953125 C 13.148438 -3.816406 13.691406 -4.804688 14.078125 -5.921875 C 14.460938 -7.046875 14.65625 -8.265625 14.65625 -9.578125 C 14.65625 -10.878906 14.460938 -12.097656 14.078125 -13.234375 C 13.691406 -14.367188 13.148438 -15.367188 12.453125 -16.234375 C 11.765625 -17.109375 10.96875 -17.789062 10.0625 -18.28125 C 9.15625 -18.769531 8.1875 -19.015625 7.15625 -19.015625 Z M 3.078125 -19.015625 "/></g></g></g></svg>